<svg width="26" height="26" viewBox="0 0 26 26" fill="none" xmlns="http://www.w3.org/2000/svg">
<path d="M13.9077 11.7906C13.9077 11.2898 13.5016 10.8837 13.0007 10.8837C12.4998 10.8837 12.0938 11.2898 12.0938 11.7906V19.0465C12.0938 19.5474 12.4998 19.9535 13.0007 19.9535C13.5016 19.9535 13.9077 19.5474 13.9077 19.0465V11.7906Z" fill="white"/>
<circle cx="20" cy="22" r="4" fill="#4ADA2C"/>
<path fill-rule="evenodd" clip-rule="evenodd" d="M13 0C5.82032 0 0 5.82032 0 13C0 20.1798 5.82032 26.0001 13 26.0001C20.1798 26.0001 26.0001 20.1798 26.0001 13C26.0001 5.82032 20.1798 0 13 0ZM1.81396 13C1.81396 6.82214 6.82214 1.81396 13 1.81396C19.1779 1.81396 24.1861 6.82214 24.1861 13C24.1861 19.1779 19.1779 24.1861 13 24.1861C6.82214 24.1861 1.81396 19.1779 1.81396 13Z" fill="white"/>
<path d="M14.2096 8.1628C14.2096 8.83067 13.6682 9.3721 13.0003 9.3721C12.3324 9.3721 11.791 8.83067 11.791 8.1628C11.791 7.49492 12.3324 6.95349 13.0003 6.95349C13.6682 6.95349 14.2096 7.49492 14.2096 8.1628Z" fill="white"/>
</svg>
