<svg width="16" height="14" viewBox="0 0 16 14" fill="none" xmlns="http://www.w3.org/2000/svg">
<path d="M8 3.69034V1.03644C7.99968 0.831489 7.94087 0.631221 7.83098 0.460876C7.72109 0.29053 7.56504 0.15773 7.3825 0.0792093C7.19996 0.000688937 6.99909 -0.0200376 6.8052 0.0196423C6.61132 0.0593222 6.4331 0.157633 6.293 0.302184L0 6.74041L6.293 13.1776C6.38565 13.2742 6.49581 13.3509 6.61715 13.4033C6.73848 13.4556 6.86859 13.4825 7 13.4825C7.13141 13.4825 7.26152 13.4556 7.38285 13.4033C7.50419 13.3509 7.61435 13.2742 7.707 13.1776C7.89455 12.9831 7.99994 12.7194 8 12.4444V9.86307C10.75 9.93359 13.755 10.4501 16 14V12.9629C16 8.1581 12.5 4.20681 8 3.69034Z" fill="#FF1F1F"/>
</svg>
