<svg width="26" height="24" viewBox="0 0 26 24" fill="none" xmlns="http://www.w3.org/2000/svg">
<circle cx="20" cy="18" r="4" fill="#C33C39"/>
<path d="M26 20.5833V16.25C26 15.9627 25.8859 15.6871 25.6827 15.484C25.4795 15.2808 25.204 15.1667 24.9167 15.1667C24.6293 15.1667 24.3538 15.2808 24.1506 15.484C23.9475 15.6871 23.8333 15.9627 23.8333 16.25V20.5833C23.8333 20.8706 23.7192 21.1462 23.516 21.3494C23.3129 21.5525 23.0373 21.6667 22.75 21.6667H3.25C2.96268 21.6667 2.68713 21.5525 2.48397 21.3494C2.2808 21.1462 2.16667 20.8706 2.16667 20.5833V16.25C2.16667 15.9627 2.05253 15.6871 1.84937 15.484C1.6462 15.2808 1.37065 15.1667 1.08333 15.1667C0.796016 15.1667 0.520466 15.2808 0.317301 15.484C0.114137 15.6871 0 15.9627 0 16.25V20.5833C0 21.4453 0.34241 22.2719 0.951903 22.8814C1.5614 23.4909 2.38805 23.8333 3.25 23.8333H22.75C23.612 23.8333 24.4386 23.4909 25.0481 22.8814C25.6576 22.2719 26 21.4453 26 20.5833ZM19.0883 14.9283L13.6717 19.2617C13.4804 19.4128 13.2438 19.495 13 19.495C12.7562 19.495 12.5196 19.4128 12.3283 19.2617L6.91167 14.9283C6.7143 14.742 6.59405 14.4884 6.57471 14.2177C6.55538 13.947 6.63836 13.6789 6.80724 13.4664C6.97612 13.254 7.21859 13.1126 7.48669 13.0704C7.75479 13.0282 8.02897 13.0881 8.255 13.2383L11.9167 16.1633V1.08333C11.9167 0.796015 12.0308 0.520466 12.234 0.317301C12.4371 0.114137 12.7127 0 13 0C13.2873 0 13.5629 0.114137 13.766 0.317301C13.9692 0.520466 14.0833 0.796015 14.0833 1.08333V16.1633L17.745 13.2383C17.8541 13.1354 17.9834 13.0562 18.1247 13.0058C18.266 12.9554 18.4162 12.9349 18.5658 12.9456C18.7155 12.9562 18.8612 12.9979 18.9939 13.0679C19.1266 13.1378 19.2433 13.2346 19.3367 13.352C19.43 13.4695 19.498 13.605 19.5362 13.7501C19.5744 13.8951 19.5821 14.0466 19.5588 14.1947C19.5354 14.3429 19.4815 14.4846 19.4006 14.6109C19.3196 14.7372 19.2133 14.8453 19.0883 14.9283Z" fill="white"/>
</svg>
