<svg width="21" height="27" viewBox="0 0 21 27" fill="none" xmlns="http://www.w3.org/2000/svg">
<circle cx="4.37739" cy="15.8611" r="3.77778" fill="#C33C39"/>
<path d="M2.83863 26.25C2.46546 26.25 2.09229 26.1256 1.71912 25.8768C1.09717 25.5037 0.599609 24.7573 0.599609 23.8866V1.24756C0.599609 0.99878 0.84839 0.75 1.09717 0.75H20.502C20.7508 0.75 20.9996 0.99878 20.9996 1.24756V23.8866C20.9996 24.6329 20.6264 25.3793 19.8801 25.8768C19.2581 26.25 18.3874 26.25 17.6411 25.8768L10.7996 21.8963L3.95815 25.8768C3.70937 26.1256 3.2118 26.25 2.83863 26.25ZM1.71912 1.74512V23.8866C1.71912 24.2598 1.9679 24.6329 2.21668 24.8817C2.58985 25.1305 3.08741 25.1305 3.46059 24.8817L10.5508 20.7768C10.6752 20.6524 10.924 20.6524 11.0484 20.7768L18.263 24.8817C18.6362 25.1305 19.1338 25.1305 19.5069 24.8817C19.8801 24.6329 20.1289 24.2598 20.1289 23.8866V1.74512H1.71912Z" fill="white"/>
<path d="M13.2884 16.05C13.164 16.05 12.9152 16.05 12.7909 15.9256L10.925 14.9305L9.05915 15.9256C8.68598 16.1744 8.18842 16.05 7.81525 15.8012C7.44208 15.6768 7.31769 15.1793 7.31769 14.8061L7.69086 12.8159L6.19818 11.3232C5.825 11.0744 5.825 10.5768 5.94939 10.0793C6.07378 9.7061 6.44696 9.33293 6.82013 9.20854L8.93476 8.95976L9.80549 7.09391C10.0543 6.72073 10.4274 6.47195 10.8006 6.47195C11.2982 6.47195 11.6713 6.72073 11.7957 7.09391L12.7909 8.95976L14.7811 9.20854C15.1543 9.33293 15.5274 9.58171 15.7762 9.95488C15.9006 10.4524 15.7762 10.8256 15.5274 11.1988L14.0348 12.6915L14.4079 14.6817C14.5323 15.0549 14.2835 15.5524 13.9104 15.8012C13.786 16.05 13.5372 16.05 13.2884 16.05ZM10.8006 13.811C10.925 13.811 11.0494 13.811 11.0494 13.9354L13.164 15.0549H13.2884L12.9152 12.5671C12.9152 12.4427 12.9152 12.1939 13.0396 12.0695L14.7811 10.4524L14.6567 10.3281L12.2933 9.95488C12.1689 9.95488 12.0445 9.83049 11.9201 9.7061L10.925 7.59147H10.8006L9.80549 9.7061C9.6811 9.83049 9.55671 9.95488 9.43232 9.95488L7.06891 10.3281L6.94452 10.4524L8.68598 12.1939C8.81037 12.3183 8.93476 12.4427 8.81037 12.6915L8.4372 15.0549L8.56159 15.1793L10.6762 14.0598C10.6762 13.9354 10.8006 13.811 10.8006 13.811Z" fill="white"/>
</svg>
