<svg width="26" height="27" viewBox="0 0 26 27" fill="none" xmlns="http://www.w3.org/2000/svg">
<circle cx="19" cy="12" r="4" fill="#4ADA2C"/>
<path d="M26 18.0469C26 14.16 23.4465 10.764 19.8456 9.74061C19.6192 4.33024 15.2576 0 9.92773 0C4.45348 0 0 4.56767 0 10.1823C0 12.0121 0.474884 13.7938 1.37665 15.3579L0.036499 20.327L4.88155 18.9527C6.28339 19.8029 7.86475 20.2818 9.49689 20.354C10.4945 24.0475 13.8058 26.6667 17.5957 26.6667C19.1084 26.6667 20.5795 26.2535 21.872 25.4684L25.9633 26.629L24.8316 22.4329C25.5971 21.1072 26 19.5984 26 18.0469ZM5.12196 17.2632L2.22148 18.0862L3.02386 15.1113L2.84097 14.8179C1.97908 13.4349 1.52344 11.8319 1.52344 10.1823C1.52344 5.42928 5.29355 1.5625 9.92773 1.5625C14.5619 1.5625 18.332 5.42928 18.332 10.1823C18.332 14.9353 14.5619 18.8021 9.92773 18.8021C8.3194 18.8021 6.75668 18.3348 5.408 17.4508L5.12196 17.2632ZM23.7785 24.3882L21.6263 23.7775L21.3388 23.9693C20.2246 24.7117 18.9301 25.1042 17.5957 25.1042C14.6171 25.1042 11.9996 23.1289 11.0723 20.2964C15.6335 19.7571 19.2632 16.0344 19.7892 11.356C22.5506 12.3073 24.4766 14.9919 24.4766 18.0469C24.4766 19.4155 24.0939 20.7432 23.3701 21.886L23.183 22.1808L23.7785 24.3882Z" fill="white"/>
<path d="M9.16602 14.1146H10.6895V15.6771H9.16602V14.1146Z" fill="white"/>
<path d="M11.4512 7.8125C11.4512 8.25623 11.275 8.66577 10.9553 8.96586L9.16602 10.6456V12.5521H10.6895V11.3336L11.9838 10.1186C12.6134 9.52759 12.9746 8.68714 12.9746 7.8125C12.9746 6.08928 11.6079 4.6875 9.92773 4.6875C8.24759 4.6875 6.88086 6.08928 6.88086 7.8125H8.4043C8.4043 6.95089 9.08766 6.25 9.92773 6.25C10.7678 6.25 11.4512 6.95089 11.4512 7.8125Z" fill="white"/>
</svg>
