<svg width="27" height="23" viewBox="0 0 27 23" fill="none" xmlns="http://www.w3.org/2000/svg">
<circle cx="4" cy="17" r="4" fill="#C33C39"/>
<path d="M26.7232 9.08431L14.399 0.129487C14.1613 -0.0431623 13.8385 -0.0431623 13.6009 0.129487L1.27653 9.08431C0.975502 9.30307 0.910097 9.72255 1.13054 10.0213C1.35097 10.32 1.77372 10.3848 2.0747 10.1662L13.9999 1.50126L25.9251 10.1661C26.0453 10.2535 26.1851 10.2956 26.3236 10.2956C26.5316 10.2956 26.7368 10.2006 26.8692 10.0212C27.0897 9.72255 27.0243 9.30307 26.7232 9.08431Z" fill="white"/>
<path d="M23.4581 10.3179C23.085 10.3179 22.7825 10.618 22.7825 10.9883V21.6591H17.3784V15.8343C17.3784 13.9859 15.863 12.4821 14.0004 12.4821C12.1379 12.4821 10.6225 13.986 10.6225 15.8343V21.6592H5.21826V10.9883C5.21826 10.6181 4.91576 10.3179 4.54272 10.3179C4.16969 10.3179 3.86719 10.6181 3.86719 10.9883V22.3296C3.86719 22.6999 4.16969 23 4.54272 23H11.298C11.6533 23 11.944 22.7276 11.9709 22.3818C11.9725 22.3661 11.9736 22.349 11.9736 22.3296V15.8344C11.9736 14.7252 12.8828 13.8229 14.0004 13.8229C15.1181 13.8229 16.0273 14.7253 16.0273 15.8344V22.3296C16.0273 22.3489 16.0283 22.3657 16.0299 22.3812C16.0565 22.7273 16.3474 23 16.7028 23H23.4581C23.8312 23 24.1337 22.6999 24.1337 22.3296V10.9883C24.1336 10.618 23.8312 10.3179 23.4581 10.3179Z" fill="white"/>
</svg>
