<?xml version="1.0" encoding="UTF-8"?>
<svg width="14px" height="13px" viewBox="0 0 14 13" version="1.1" xmlns="http://www.w3.org/2000/svg" xmlns:xlink="http://www.w3.org/1999/xlink">
    <title>icon-heart-type01</title>
    <g id="icon-set最新整理" stroke="none" stroke-width="1" fill="none" fill-rule="evenodd">
        <g id="images/h5/icon-set" transform="translate(-69.000000, -729.000000)" fill="#ED1F23" fill-rule="nonzero">
            <g id="icon-heart-type01" transform="translate(69.000000, 729.000000)">
                <path d="M6.976981,12.414548 C6.778326,12.414548 6.586804,12.34258 6.437547,12.211847 C5.87384,11.718936 5.33036,11.255727 4.850863,10.847133 L4.848414,10.845003 C3.442606,9.647006 2.228639,8.612425 1.383983,7.59328 C0.439787,6.453942 0,5.37369 0,4.193577 C0,3.047 0.393157,1.98921 1.106974,1.214925 C1.829307,0.431483 2.820452,0 3.89815,0 C4.703628,0 5.441292,0.254653 6.090593,0.756826 C6.418278,1.010308 6.715302,1.320533 6.976981,1.682392 C7.238767,1.320533 7.535685,1.010308 7.863476,0.756826 C8.512777,0.254653 9.250441,0 10.055919,0 C11.13351,0 12.124762,0.431483 12.847095,1.214925 C13.560912,1.98921 13.953963,3.047 13.953963,4.193577 C13.953963,5.37369 13.514282,6.453942 12.570086,7.593174 C11.72543,8.612425 10.511569,9.646899 9.105974,10.844791 C8.625625,11.254024 8.081294,11.717978 7.516309,12.21206 C7.367158,12.34258 7.17553,12.414548 6.976981,12.414548 L6.976981,12.414548 Z" id="like"></path>
            </g>
        </g>
    </g>
</svg>