<?xml version="1.0" encoding="UTF-8"?>
<svg width="30px" height="30px" viewBox="0 0 30 30" version="1.1" xmlns="http://www.w3.org/2000/svg" xmlns:xlink="http://www.w3.org/1999/xlink">
    <title>crm/solid/icon-phone</title>
    <g id="crm/solid/icon-phone" stroke="none" stroke-width="1" fill="none" fill-rule="evenodd">
        <path d="M7.72598676,5.38731207 C8.12608826,5.41208693 8.51118595,5.59542094 8.78125446,5.88776435 C9.09633439,6.18010776 9.38140671,6.47245117 9.68148283,6.78461447 L11.5219497,8.60804456 C11.8770398,8.88056808 12.0870931,9.30669576 12.0870931,9.75264333 C12.0870931,10.1985909 11.8770398,10.6247186 11.5219497,10.8972421 L11.1068444,11.3085049 C10.7367505,11.6850828 10.2916376,12.1310304 9.81151582,12.5472481 C9.66147776,12.6810324 9.6064638,12.8940963 9.67648157,13.0873402 C10.056578,13.9643704 10.5817112,14.8116708 11.2168723,15.5747367 C12.4521857,17.1504181 13.9175575,18.4932158 15.5879812,19.5733999 C15.7580243,19.6724994 15.9530738,19.7765538 16.1481233,19.8657434 C16.2981614,19.9400679 16.4381969,20.0143925 16.5732312,20.0936721 L16.6382476,20.0936721 L16.7582781,20.1630417 C16.8332971,20.2026815 16.9133174,20.2274564 16.998339,20.2274564 C17.1383745,20.2225014 17.2834113,20.1580868 17.3784354,20.0441224 L19.1038731,18.3594315 C19.3689404,18.0720431 19.7540381,17.8837541 20.1741446,17.8490693 L20.2091535,17.8441143 L20.2441624,17.8441143 C20.6542664,17.8688892 21.0493667,18.0571782 21.3194352,18.3643865 L24.0351241,21.0549369 C24.3802117,21.3324154 24.5852637,21.7585431 24.5852637,22.2292655 C24.5852637,22.4918791 24.5102446,22.7544926 24.3752104,22.9774664 L24.4752358,23.0765659 L24.1701584,23.423414 C24.0201203,23.5968381 23.8600797,23.7553972 23.6950378,23.9139563 L23.5399985,24.0626055 C23.194911,24.3797238 22.879831,24.706752 22.5847562,25.0387352 C22.0246141,25.6531519 21.2394149,26 20.4092043,26 C20.3691941,26 20.329184,25.995045 20.2891738,25.995045 L20.0891231,25.995045 C18.5887425,25.8463958 17.203391,25.4351331 15.9130637,24.7612567 C12.9723177,23.3540444 10.4116681,21.3621452 8.31613647,18.8598838 C6.73073428,17.0463637 5.48041709,14.9850949 4.61019633,12.7355371 C4.16008215,11.7049027 3.95002886,10.545439 4.01004409,9.40579522 C4.06005677,8.71705397 4.35513163,8.07290747 4.84525597,7.59227508 L6.56569241,5.88776435 C6.85076473,5.59542094 7.24086369,5.41704191 7.655969,5.38731207 Z M16.0928952,7.34581077 L16.1931347,7.35443637 C19.4589632,7.91434833 22.0196128,10.4512945 22.5897574,13.6918469 C22.6297676,13.865271 22.5897574,14.048605 22.4847308,14.1972542 C22.3797042,14.3459034 22.2196636,14.4450028 22.0396179,14.4697777 L21.8895798,14.4697777 C21.5544948,14.4747327 21.2694225,14.236894 21.2144085,13.9098657 C20.7442893,11.2391353 18.6287526,9.14318165 15.9330688,8.67741418 L15.9630764,8.6922791 C15.788032,8.66254926 15.6279914,8.5634498 15.5179635,8.41975558 C15.4179381,8.27110639 15.3779279,8.08777239 15.4079355,7.91434833 C15.472952,7.54768032 15.8230408,7.2949767 16.1931347,7.35443637 Z M16.3531607,3.00002627 L16.458202,3.008925 C21.8445684,3.97018977 26.0306303,8.18191687 26.9258574,13.5283328 L26.9908739,13.498603 C27.0208815,13.676982 26.9758701,13.855361 26.8708435,13.9990552 C26.7608156,14.1427495 26.600775,14.2418489 26.4257306,14.2666998 L26.3157027,14.2666998 C25.9806176,14.2715788 25.6955453,14.0337401 25.6405314,13.7067118 C24.815322,8.94002775 21.0493667,5.20397807 16.2381461,4.37649756 C15.993084,4.33685778 15.788032,4.17334367 15.6980091,3.94045993 C15.6079863,3.7075762 15.6529977,3.4499176 15.808037,3.25667365 C15.9630764,3.0634297 16.2131398,2.96928521 16.458202,3.008925 Z" id="Combined-Shape" fill="#222222" fill-rule="nonzero"></path>
    </g>
</svg>