<?xml version="1.0" encoding="UTF-8"?>
<svg width="22px" height="22px" viewBox="0 0 22 22" version="1.1" xmlns="http://www.w3.org/2000/svg" xmlns:xlink="http://www.w3.org/1999/xlink">
    <title>Frame</title>
    <defs>
        <path d="M0,0 L22,0 L22,22 L0,22 L0,0 Z" id="path-1"></path>
    </defs>
    <g id="Frame" stroke="none" fill="none" xlink:href="#path-1" fill-rule="evenodd">
        <path d="M20.4028001,9.09061971 C20.3899196,6.0884408 19.449639,3.75874996 17.6206001,2.1735995 C15.0831306,-0.0239954679 10.9355917,1.09742679e-05 10.987114,1.09742679e-05 C11.0386362,1.09742679e-05 6.89109727,-0.0239954679 4.36650836,2.1735995 C2.53746946,3.75874996 1.5971889,6.0884408 1.58430834,9.09061971 C0.682669449,9.29476787 -3.80140364e-13,10.051317 -3.80140364e-13,10.9519706 L-3.80140364e-13,15.8995615 C-3.80140364e-13,16.9563285 0.927400006,17.820956 2.0608889,17.820956 L4.7915667,17.820956 C5.92505559,17.820956 6.8524556,16.9563285 6.8524556,15.8995615 L6.8524556,10.9519706 C6.8524556,10.135378 6.29859171,9.43887246 5.52575837,9.162672 C5.5,7.32533851 5.97657781,5.90831006 6.99414171,4.97163024 C8.46252505,3.61464537 9.99531117,3.62665409 11.0386362,3.62665409 C12.0819612,3.62665409 13.537464,3.60263666 15.0058473,4.97163024 C16.0234112,5.90831006 16.5,7.33734722 16.4742307,9.162672 C15.7013973,9.43887246 15.1475334,10.135378 15.1475334,10.9519706 L15.1475334,15.8995615 C15.1475334,16.9563285 16.0749334,17.820956 17.2084223,17.820956 L17.7880473,17.820956 C17.6850029,18.2292523 17.4660334,18.7696445 16.9508112,19.2740106 C15.9976501,20.2106904 14.3875806,20.6790303 12.1721251,20.6790303 C11.7857084,20.6790303 11.4636945,20.9792482 11.4636945,21.3395097 C11.4636945,21.6997711 11.7857084,21.999989 12.1721251,21.999989 C14.812639,21.999989 16.783364,21.3755358 18.0070168,20.1506468 C18.8313723,19.3220454 19.1276251,18.4213918 19.2306696,17.8089473 L19.9391001,17.8089473 C21.072589,17.8089473 21.999989,16.9443197 21.999989,15.8875528 L21.999989,10.9399619 C21.999989,10.0393082 21.3173196,9.28275916 20.4156807,9.07861099 L20.4028001,9.09061971 Z M5.43559448,15.8995615 C5.43559448,16.2237968 5.15222225,16.4999973 4.7915667,16.4999973 L2.0608889,16.4999973 C1.70023334,16.4999973 1.41686112,16.2358055 1.41686112,15.8995615 L1.41686112,10.9519706 C1.41686112,10.6277353 1.70023334,10.3515348 2.0608889,10.3515348 L4.7915667,10.3515348 C5.15222225,10.3515348 5.43559448,10.6157266 5.43559448,10.9519706 L5.43559448,15.8995615 Z M10.987114,2.30569537 C10.5362945,2.30569537 7.85713894,2.3297128 6.00233893,4.0229417 C4.71428336,5.19979584 4.08313614,6.89302474 4.08313614,9.04258484 L3.01405002,9.04258484 C3.03981113,6.46071098 3.81264447,4.4792729 5.31966948,3.15831418 C7.47072227,1.29696325 9.90514728,1.21290224 10.9613528,1.21290224 C12.0175584,1.21290224 14.5163862,1.29696325 16.667439,3.15831418 C18.174464,4.46726418 18.9472973,6.44870226 18.9730585,9.04258484 L17.8910918,9.04258484 C17.8910918,6.89302474 17.2599446,5.19979584 15.971889,4.0229417 C14.1042084,2.30569537 11.4250528,2.30569537 10.9742334,2.30569537 L10.987114,2.30569537 Z M20.5702474,15.8995615 C20.5702474,16.2237968 20.2868751,16.4999973 19.9262196,16.4999973 L17.1955418,16.4999973 C16.8477668,16.4999973 16.551514,16.2358055 16.551514,15.8995615 L16.551514,10.9519706 C16.551514,10.6277353 16.8348862,10.3515348 17.1955418,10.3515348 L19.9262196,10.3515348 C20.2868751,10.3515348 20.5702474,10.6157266 20.5702474,10.9519706 L20.5702474,15.8995615 Z" id="Shape" fill="#FFFFFF"></path>
    </g>
</svg>