<?xml version="1.0" encoding="UTF-8"?>
<svg width="15px" height="13px" viewBox="0 0 15 13" version="1.1" xmlns="http://www.w3.org/2000/svg" xmlns:xlink="http://www.w3.org/1999/xlink">
    <title>icon-heart-type02</title>
    <g id="icon-set最新整理" stroke="none" stroke-width="1" fill="none" fill-rule="evenodd">
        <g id="images/h5/icon-set" transform="translate(-121.000000, -729.000000)" stroke="#DDDDDD">
            <g id="icon-heart-type02" transform="translate(122.000000, 730.000000)">
                <path d="M6.266673,11.335449 L6.266989,11.335725 C6.325045,11.386576 6.399485,11.414548 6.476981,11.414548 C6.554434,11.414548 6.629053,11.38653 6.687162,11.335679 C7.158207,10.923748 7.544698,10.592093 8.281657,9.96424 C10.26975,8.269927 11,7.600859 11.685118,6.774112 C12.558921,5.719815 12.953963,4.749334 12.953963,3.693577 C12.953963,2.669729 12.606065,1.733498 11.979496,1.053851 C11.352116,0.373396 10.494284,0 9.555919,0 C8.86175,0 8.231544,0.217548 7.669342,0.652358 C7.380447,0.875762 7.11664,1.151245 6.882085,1.475463 L6.476899,2.03554 L6.071821,1.475385 C5.837549,1.151426 5.573684,0.875882 5.284701,0.652339 C4.722525,0.217548 4.092319,0 3.39815,0 C2.45972,0 1.60198,0.373366 0.97459,1.053832 C0.347956,1.73355 0,2.669805 0,3.693577 C0,4.74925 0.395085,5.719747 1.268953,6.774222 C1.954179,7.601002 2.684711,8.27029 4.675158,9.966564 C5.420227,10.601461 5.797802,10.925463 6.266673,11.335449 Z" id="Path"></path>
            </g>
        </g>
    </g>
</svg>