<svg width="26" height="28" viewBox="0 0 26 28" fill="none" xmlns="http://www.w3.org/2000/svg">
<circle cx="8" cy="7" r="4" fill="#C33C39"/>
<path d="M0.858282 15.7185H8.09709V13.0753C8.09709 12.6057 8.48137 12.225 8.95537 12.225H17.0485C17.5225 12.225 17.9068 12.6057 17.9068 13.0753V20.0552H25.1417C25.6157 20.0552 26 20.4359 26 20.9055V27.1496C26 27.6192 25.6157 27.9999 25.1417 27.9999C23.7518 27.9999 1.53215 27.9999 0.858282 27.9999C0.384283 27.9999 0 27.6192 0 27.1496V16.5688C0 16.0992 0.384283 15.7185 0.858282 15.7185ZM24.2834 21.7558H17.9069V26.2993H24.2834V21.7558ZM9.81366 26.2994H16.1902C16.1902 25.693 16.1902 14.5508 16.1902 13.9256H9.81366V26.2994ZM1.71656 26.2994H8.09315V17.4191H1.71656V26.2994Z" fill="white"/>
<path d="M16.2562 6.12111L16.3806 8.49935C16.4131 9.12051 15.7843 9.56096 15.2064 9.33353L13.0002 8.46477L10.7939 9.33353C10.2127 9.5622 9.58743 9.11716 9.61976 8.49935L9.74415 6.12111L8.2548 4.32894C7.86142 3.85555 8.08887 3.13587 8.6852 2.9699L10.9878 2.32901L12.2836 0.381862C12.622 -0.12672 13.3775 -0.127854 13.7167 0.381862L15.0125 2.32901L17.3151 2.9699C17.911 3.13576 18.1392 3.85516 17.7455 4.32894L16.2562 6.12111ZM14.2399 3.88038C14.0412 3.82506 13.8692 3.70058 13.7555 3.52978L13.0002 2.39471L12.2448 3.52978C12.1312 3.70058 11.9592 3.82506 11.7604 3.88038L10.4164 4.25445L11.2812 5.29503C11.4174 5.45896 11.4868 5.66745 11.4756 5.87951L11.4033 7.2636L12.6831 6.75961C12.8867 6.67946 13.1135 6.67946 13.3172 6.75961L14.597 7.2636L14.5247 5.87951C14.5136 5.66745 14.583 5.45902 14.7192 5.29508L15.584 4.25445L14.2399 3.88038Z" fill="white"/>
</svg>
