<svg width="26" height="15" viewBox="0 0 26 15" fill="none" xmlns="http://www.w3.org/2000/svg">
<circle cx="21" cy="11" r="4" fill="#C33C39"/>
<path d="M25.6486 4.81765C25.8426 4.81765 26 4.67777 26 4.50515V1.51825C26 0.681054 25.2342 0 24.2929 0H1.70691C0.765629 0 0 0.681054 0 1.51825V4.50519C0 4.67782 0.157371 4.8177 0.351355 4.8177C2.01434 4.8177 3.3671 6.021 3.3671 7.49995C3.3671 8.97891 2.01429 10.1822 0.351355 10.1822C0.157371 10.1822 0 10.3221 0 10.4947V13.4818C0 14.3189 0.765629 15 1.70691 15H24.2929C25.2342 15 26 14.3189 26 13.4818V10.4947C26 10.3221 25.8426 10.1822 25.6486 10.1822C23.9857 10.1822 22.6329 8.97891 22.6329 7.49995C22.6329 6.021 23.9857 4.81765 25.6486 4.81765ZM21.9302 7.49995C21.9302 9.21819 23.4111 10.6346 25.2973 10.7926V13.4818C25.2973 13.9743 24.8467 14.375 24.2929 14.375H8.85102V12.9172C8.85102 12.7446 8.69365 12.6047 8.49966 12.6047C8.30568 12.6047 8.14831 12.7446 8.14831 12.9172V14.375H1.70691C1.15314 14.375 0.702711 13.9743 0.702711 13.4818V10.7926C2.58893 10.6346 4.06981 9.21819 4.06981 7.49995C4.06981 5.78171 2.58893 4.36532 0.702711 4.20733V1.51825C0.702711 1.02571 1.15309 0.625004 1.70691 0.625004H8.14836V2.08273C8.14836 2.25535 8.30573 2.39523 8.49971 2.39523C8.6937 2.39523 8.85107 2.25535 8.85107 2.08273V0.625004H24.2929C24.8467 0.625004 25.2973 1.02571 25.2973 1.51825V4.20733C23.4111 4.36532 21.9302 5.78171 21.9302 7.49995ZM8.85102 6.54791V8.452C8.85102 8.62463 8.69365 8.76451 8.49966 8.76451C8.30568 8.76451 8.14831 8.62463 8.14831 8.452V6.54791C8.14831 6.37528 8.30568 6.2354 8.49966 6.2354C8.69365 6.2354 8.85102 6.37528 8.85102 6.54791ZM8.85102 9.7325V11.6368C8.85102 11.8094 8.69365 11.9493 8.49966 11.9493C8.30568 11.9493 8.14831 11.8094 8.14831 11.6368V9.7325C8.14831 9.55987 8.30568 9.42 8.49966 9.42C8.69365 9.42 8.85102 9.55987 8.85102 9.7325ZM8.85102 3.36322V5.26741C8.85102 5.44003 8.69365 5.57991 8.49966 5.57991C8.30568 5.57991 8.14831 5.44003 8.14831 5.26741V3.36322C8.14831 3.1906 8.30568 3.05072 8.49966 3.05072C8.69365 3.05072 8.85102 3.1906 8.85102 3.36322ZM19.2447 3.63277C19.2447 3.8054 19.0874 3.94527 18.8934 3.94527H12.6862C12.4922 3.94527 12.3348 3.8054 12.3348 3.63277C12.3348 3.46015 12.4922 3.32027 12.6862 3.32027H18.8934C19.0874 3.32027 19.2447 3.46015 19.2447 3.63277ZM19.2447 6.21088C19.2447 6.3835 19.0874 6.52338 18.8934 6.52338H12.6862C12.4922 6.52338 12.3348 6.3835 12.3348 6.21088C12.3348 6.03826 12.4922 5.89838 12.6862 5.89838H18.8934C19.0874 5.89838 19.2447 6.03826 19.2447 6.21088ZM19.2447 8.78899C19.2447 8.96161 19.0874 9.10149 18.8934 9.10149H12.6862C12.4922 9.10149 12.3348 8.96161 12.3348 8.78899C12.3348 8.61636 12.4922 8.47648 12.6862 8.47648H18.8934C19.0874 8.47648 19.2447 8.61636 19.2447 8.78899ZM19.2447 11.3671C19.2447 11.5397 19.0874 11.6796 18.8934 11.6796H12.6862C12.4922 11.6796 12.3348 11.5397 12.3348 11.3671C12.3348 11.1945 12.4922 11.0546 12.6862 11.0546H18.8934C19.0874 11.0546 19.2447 11.1945 19.2447 11.3671Z" fill="white"/>
</svg>
