<svg width="26" height="26" viewBox="0 0 26 26" fill="none" xmlns="http://www.w3.org/2000/svg">
<circle cx="6" cy="8" r="4" fill="#4ADA2C"/>
<path d="M25.5107 9.8205C25.3561 9.6659 25.1725 9.54333 24.9705 9.45982C24.7685 9.3763 24.5519 9.33348 24.3333 9.33381C21.68 9.22785 19.0263 9.53372 16.4667 10.2405C15.0318 10.6908 13.8033 11.6359 13 12.9073C12.1967 11.6359 10.9682 10.6908 9.53333 10.2405C6.97369 9.53372 4.31998 9.22785 1.66667 9.33381C1.22464 9.33381 0.800716 9.50942 0.488155 9.82199C0.175595 10.1346 1.25119e-09 10.5585 1.25119e-09 11.0006V21.6678C-1.70164e-05 22.1073 0.173563 22.529 0.482958 22.8412C0.792354 23.1534 1.21252 23.3307 1.652 23.3345C7.16267 23.3585 10.7427 24.1572 12.2933 25.7066C12.3027 25.716 12.3147 25.7187 12.324 25.728C12.4095 25.81 12.5088 25.8764 12.6173 25.924C12.7382 25.9742 12.8678 26 12.9987 26C13.1295 26 13.2591 25.9742 13.38 25.924C13.4885 25.8764 13.5878 25.81 13.6733 25.728C13.6827 25.7187 13.6947 25.716 13.704 25.7066C15.2547 24.1572 18.8347 23.3585 24.3467 23.3345C24.7864 23.331 25.2069 23.1539 25.5166 22.8417C25.8263 22.5295 26 22.1075 26 21.6678V11.0006C26.0001 10.7813 25.9569 10.5642 25.873 10.3617C25.789 10.1592 25.6659 9.97531 25.5107 9.8205ZM2 11.3352C4.33893 11.2546 6.67657 11.5288 8.93333 12.1486C9.82118 12.4216 10.5981 12.972 11.1501 13.7191C11.7021 14.4662 11.9999 15.3706 12 16.2995V23.0718C9.22 21.6211 5.15467 21.3664 2 21.3384V11.3352ZM24 21.3358C20.8453 21.3651 16.78 21.6198 14 23.0692V16.2995C14.0001 15.3706 14.2979 14.4662 14.8499 13.7191C15.4019 12.972 16.1788 12.4216 17.0667 12.1486C19.3234 11.5288 21.6611 11.2546 24 11.3352V21.3358ZM13 8.66711C13.8571 8.66711 14.6949 8.41295 15.4075 7.93678C16.1201 7.4606 16.6755 6.78379 17.0035 5.99194C17.3315 5.20008 17.4173 4.32875 17.2501 3.48812C17.0829 2.64749 16.6702 1.87533 16.0641 1.26927C15.4581 0.663212 14.686 0.250481 13.8454 0.08327C13.0048 -0.0839412 12.1335 0.00187766 11.3417 0.329874C10.5499 0.657871 9.87312 1.21331 9.39697 1.92596C8.92081 2.63861 8.66667 3.47646 8.66667 4.33356C8.66808 5.48245 9.12508 6.58389 9.93743 7.39628C10.7498 8.20868 11.8512 8.6657 13 8.66711ZM13 2.0001C13.4615 2.0001 13.9126 2.13696 14.2963 2.39336C14.68 2.64977 14.9791 3.0142 15.1557 3.44058C15.3323 3.86697 15.3785 4.33615 15.2885 4.78879C15.1985 5.24144 14.9762 5.65722 14.6499 5.98356C14.3236 6.3099 13.9078 6.53214 13.4552 6.62217C13.0026 6.71221 12.5334 6.666 12.1071 6.48939C11.6807 6.31277 11.3163 6.01369 11.0599 5.62995C10.8035 5.24622 10.6667 4.79507 10.6667 4.33356C10.6674 3.7149 10.9134 3.12179 11.3509 2.68434C11.7883 2.24688 12.3814 2.00081 13 2.0001Z" fill="white"/>
</svg>
