<svg xmlns="http://www.w3.org/2000/svg" fill="none"><path fill="#fff" d="M12.53 11.402c.125.176.07.373-.09.498-1.289.67-2.938.935-3.887 2.188-.737.972-1.01 2.595-1.521 3.74-.077.252-.354.204-.497.044-.59-1.41-.835-3.185-1.94-4.233-.928-.884-2.416-1.177-3.518-1.763-.106-.097-.091-.294-.037-.414.084-.18 2.401-1.072 2.792-1.285C5.747 9.128 5.605 7.34 6.477 5.574c.186-.377.347-.526.588-.064.456.872.66 2.165 1.142 3.1.916 1.776 2.784 1.976 4.32 2.8l.004-.008ZM18.959 5.87c.074.107.044.235-.058.312-.777.42-1.772.586-2.343 1.37-.447.61-.612 1.624-.916 2.338-.048.158-.213.127-.301.027-.355-.884-.504-1.991-1.17-2.65-.558-.553-1.458-.738-2.124-1.104-.064-.062-.054-.186-.02-.259.05-.112 1.45-.671 1.684-.806 1.156-.656 1.068-1.775 1.596-2.878.111-.236.21-.328.355-.043.274.544.399 1.354.69 1.94.55 1.112 1.68 1.24 2.607 1.752Z"/></svg>