<svg width="26" height="26" viewBox="0 0 26 26" fill="none" xmlns="http://www.w3.org/2000/svg">
<circle cx="10" cy="14" r="4" fill="#4ADA2C"/>
<path d="M18.9758 7.02493C17.3799 5.42895 15.2578 4.54999 13.0008 4.54999C10.7437 4.54999 8.6217 5.42895 7.02572 7.02493C5.42974 8.62091 4.55078 10.7429 4.55078 13C4.55078 15.257 5.42974 17.3791 7.02572 18.975C8.6217 20.571 10.7437 21.45 13.0008 21.45C15.2578 21.45 17.3799 20.571 18.9758 18.975C20.5718 17.3791 21.4508 15.257 21.4508 13C21.4508 10.7429 20.5718 8.62091 18.9758 7.02493ZM8.21813 18.7201C8.49715 16.3193 10.5613 14.4657 13.0008 14.4657C14.2868 14.4657 15.4961 14.9668 16.4057 15.8763C17.1742 16.6449 17.6589 17.6484 17.7836 18.72C16.4877 19.8053 14.8193 20.4598 13.0008 20.4598C11.1823 20.4598 9.51394 19.8054 8.21813 18.7201ZM13.0008 13.4459C11.5857 13.4459 10.4343 12.2944 10.4343 10.8794C10.4343 9.46415 11.5857 8.31288 13.0008 8.31288C14.4159 8.31288 15.5673 9.46415 15.5673 10.8794C15.5673 12.2944 14.4159 13.4459 13.0008 13.4459ZM18.6358 17.883C18.3835 16.8656 17.8573 15.9276 17.1059 15.1762C16.4973 14.5676 15.7773 14.111 14.9921 13.8249C15.936 13.1848 16.5575 12.1032 16.5575 10.8794C16.5575 8.91824 14.9619 7.32264 13.0008 7.32264C11.0397 7.32264 9.44406 8.91824 9.44406 10.8794C9.44406 12.1039 10.0661 13.1858 11.0108 13.8258C10.2883 14.0891 9.6198 14.4962 9.04461 15.032C8.21168 15.8077 7.63327 16.7968 7.36508 17.8822C6.22928 16.5728 5.54102 14.8653 5.54102 13C5.54102 8.88665 8.88744 5.54022 13.0008 5.54022C17.1141 5.54022 20.4605 8.88665 20.4605 13C20.4605 14.8657 19.772 16.5736 18.6358 17.883Z" fill="white"/>
<circle cx="13.0004" cy="2.6" r="2.1" stroke="white"/>
<circle cx="21.4496" cy="6.50002" r="2.1" stroke="white"/>
<circle cx="23.4008" cy="14.3" r="2.1" stroke="white"/>
<circle cx="19.5004" cy="21.45" r="2.1" stroke="white"/>
<circle cx="13.0004" cy="23.4" r="2.1" stroke="white"/>
<circle cx="5.85" cy="20.8" r="2.1" stroke="white"/>
<circle cx="2.6" cy="14.3" r="2.1" stroke="white"/>
<circle cx="4.54922" cy="6.50002" r="2.1" stroke="white"/>
</svg>
