<svg width="40" height="40" viewBox="0 0 40 40" fill="none" xmlns="http://www.w3.org/2000/svg">
<path d="M20 40C31.0457 40 40 31.0457 40 20C40 8.9543 31.0457 0 20 0C8.9543 0 0 8.9543 0 20C0 31.0457 8.9543 40 20 40Z" fill="#F0F0F0"/>
<path d="M4.13484 7.82359C2.56383 9.86758 1.37922 12.2234 0.689453 14.7827H11.094L4.13484 7.82359Z" fill="#0052B4"/>
<path d="M39.3106 14.7827C38.6209 12.2235 37.4362 9.86765 35.8652 7.82367L28.9062 14.7827H39.3106Z" fill="#0052B4"/>
<path d="M0.689453 25.2175C1.3793 27.7767 2.56391 30.1326 4.13484 32.1765L11.0938 25.2175H0.689453Z" fill="#0052B4"/>
<path d="M32.1778 4.13446C30.1338 2.56344 27.778 1.37883 25.2188 0.688988V11.0934L32.1778 4.13446Z" fill="#0052B4"/>
<path d="M7.82422 35.8655C9.8682 37.4366 12.2241 38.6212 14.7833 39.311V28.9066L7.82422 35.8655Z" fill="#0052B4"/>
<path d="M14.7832 0.688988C12.224 1.37883 9.86812 2.56344 7.82422 4.13438L14.7832 11.0934V0.688988Z" fill="#0052B4"/>
<path d="M25.2188 39.311C27.778 38.6212 30.1338 37.4366 32.1777 35.8656L25.2188 28.9066V39.311Z" fill="#0052B4"/>
<path d="M28.9062 25.2175L35.8652 32.1766C37.4362 30.1327 38.6209 27.7767 39.3106 25.2175H28.9062Z" fill="#0052B4"/>
<path d="M39.8307 17.3913H22.6088H22.6087V0.169297C21.7548 0.058125 20.8841 0 20 0C19.1157 0 18.2452 0.058125 17.3913 0.169297V17.3912V17.3913H0.169297C0.058125 18.2452 0 19.1159 0 20C0 20.8843 0.058125 21.7548 0.169297 22.6087H17.3912H17.3913V39.8307C18.2452 39.9419 19.1157 40 20 40C20.8841 40 21.7548 39.942 22.6087 39.8307V22.6088V22.6087H39.8307C39.9419 21.7548 40 20.8843 40 20C40 19.1159 39.9419 18.2452 39.8307 17.3913Z" fill="#D80027"/>
<path d="M25.2168 25.2175L34.1415 34.1422C34.552 33.7319 34.9435 33.3029 35.3171 32.8582L27.6763 25.2174H25.2168V25.2175Z" fill="#D80027"/>
<path d="M14.7822 25.2175H14.782L5.85742 34.1421C6.26773 34.5526 6.69672 34.9441 7.14141 35.3177L14.7822 27.6768V25.2175Z" fill="#D80027"/>
<path d="M14.782 14.7827V14.7826L5.85727 5.85781C5.4468 6.26812 5.05523 6.69711 4.68164 7.1418L12.3225 14.7827L14.782 14.7827Z" fill="#D80027"/>
<path d="M25.2168 14.7827L34.1416 5.85789C33.7312 5.44742 33.3023 5.05586 32.8576 4.68234L25.2168 12.3232V14.7827Z" fill="#D80027"/>
</svg>
